<?xml version="1.0" standalone="no"?>
<!DOCTYPE svg PUBLIC "-//W3C//DTD SVG 20010904//EN"
 "http://www.w3.org/TR/2001/REC-SVG-20010904/DTD/svg10.dtd">
<svg version="1.0" xmlns="http://www.w3.org/2000/svg"
 width="700.000000pt" height="700.000000pt" viewBox="0 0 700.000000 700.000000"
 preserveAspectRatio="xMidYMid meet">
<metadata>
Created by potrace 1.11, written by Peter Selinger 2001-2013
</metadata>
<g transform="translate(0.000000,700.000000) scale(0.100000,-0.100000)"
fill="#000000" stroke="none">
<path d="M5455 4814 c-99 -24 -189 -45 -200 -48 -11 -3 -182 -44 -380 -91
-198 -48 -367 -88 -375 -90 -49 -10 -116 -29 -122 -34 -4 -3 6 -60 22 -126 88
-363 139 -574 145 -605 4 -19 11 -48 16 -65 10 -35 88 -358 95 -395 3 -14 7
-33 10 -42 3 -9 7 -25 9 -35 8 -37 74 -312 106 -440 l32 -131 39 14 c21 7 38
11 38 9 0 -2 24 3 53 11 63 17 302 74 337 81 14 2 28 8 33 12 6 6 -43 233 -88
401 -8 30 -17 69 -20 85 -3 17 -14 63 -24 103 l-19 72 51 15 c29 8 99 26 157
39 58 14 173 40 255 60 83 20 154 36 159 36 4 0 5 17 1 38 -12 67 -86 365 -93
377 -5 8 -66 -3 -222 -41 -118 -29 -226 -55 -240 -58 -14 -3 -56 -13 -93 -22
-38 -9 -71 -14 -74 -11 -10 10 -80 312 -74 318 3 4 58 19 121 34 63 14 198 47
300 72 102 25 190 46 195 47 94 21 131 30 137 35 9 8 -91 421 -100 420 -4 0
-88 -21 -187 -45z"/>
<path d="M3044 4235 c-21 -6 -133 -33 -248 -60 -115 -27 -214 -55 -221 -61 -7
-7 -15 -34 -19 -61 -4 -26 -9 -55 -11 -63 -1 -8 -12 -69 -24 -135 -12 -66 -26
-140 -32 -165 -5 -25 -12 -62 -15 -84 -3 -21 -8 -48 -10 -60 -8 -35 -34 -179
-40 -216 -3 -19 -7 -42 -10 -50 -6 -16 -2 -20 -98 105 -30 39 -136 176 -236
305 -100 129 -185 242 -190 250 -7 12 -48 5 -272 -48 -144 -35 -266 -67 -270
-71 -5 -4 20 -38 53 -76 34 -39 71 -81 83 -95 219 -256 453 -527 461 -536 5
-6 33 -37 61 -70 28 -32 97 -112 152 -176 l101 -117 27 -103 c14 -57 27 -110
29 -118 32 -150 86 -365 94 -378 7 -12 151 18 474 99 29 8 37 14 33 27 -8 29
-28 106 -31 122 -4 23 -83 347 -99 409 -15 58 -17 42 45 301 12 47 22 92 24
100 4 18 153 625 162 660 3 14 7 30 8 35 2 6 17 69 35 140 17 72 33 138 35
148 2 10 7 26 10 36 6 21 -6 22 -61 6z"/>
<path d="M3845 3658 c-121 -23 -232 -104 -281 -205 -66 -133 -31 -330 77 -448
109 -119 288 -143 457 -64 157 75 231 226 197 402 -45 236 -220 359 -450 315z"/>
</g>
</svg>
